<svg xmlns="http://www.w3.org/2000/svg" viewBox="0 0 500 500"><g id="freepik--background-complete--inject-325"><rect x="25.5" y="36.01" width="117.82" height="211.65" style="fill:#ebebeb"></rect><rect x="30.21" y="42.14" width="107.19" height="199.21" style="fill:#fff"></rect><polygon points="148.3 249.56 143.32 247.66 143.32 32.42 148.3 32.42 148.3 249.56" style="fill:#e0e0e0"></polygon><path d="M56.48,170.82,84.32,145c3.53-3.28,8.14-6.81,12.68-5.2,2.18.78,3.82,2.64,6,3.53,4.27,1.78,9.15-.79,12.44-4.05s5.88-7.34,9.86-9.7,10.17-2.07,12.13,2.12v28.16L96.94,177.13Z" style="fill:#fafafa"></path><path d="M30.21,154.63C40.46,150.46,50.7,154,58,162.3c1.55,1.75,3,3.76,5.08,4.73,2.87,1.3,6.2.32,9.33,0a23.48,23.48,0,0,1,22.08,10.7L60.29,194.55l-30.08-.22Z" style="fill:#ebebeb"></path><path d="M137.39,154.77c-6.75-3.26-12.7.69-18.93,4.87s-12,9.53-19.34,11.21C94.24,172,89,171.35,84.28,173c-9.62,3.43-15.19,15.65-25.38,16.23-5.54.32-10.51-3-15.45-5.56s-8.84-4.91-13.24-1.54v59.19H137.39Z" style="fill:#f5f5f5"></path><rect x="30.21" y="99.45" width="107.61" height="2.12" style="fill:#e0e0e0"></rect><rect x="30.21" y="146.89" width="107.61" height="2.12" style="fill:#e0e0e0"></rect><rect x="30.21" y="194.33" width="107.19" height="2.12" style="fill:#e0e0e0"></rect><rect x="10.56" y="171.05" width="146.49" height="5.42" transform="translate(-89.95 257.55) rotate(-90)" style="fill:#e0e0e0"></rect><rect x="50.85" y="42.14" width="2.45" height="58.37" style="fill:#e0e0e0"></rect><rect x="72.01" y="42.14" width="2.45" height="58.37" style="fill:#e0e0e0"></rect><rect x="93.17" y="42.14" width="2.45" height="58.37" style="fill:#e0e0e0"></rect><rect x="114.33" y="42.14" width="2.45" height="58.37" style="fill:#e0e0e0"></rect><rect x="20.52" y="32.42" width="4.98" height="216.55" style="fill:#e0e0e0"></rect><rect x="20.52" y="30.23" width="127.78" height="5.77" style="fill:#e0e0e0"></rect><rect x="16.98" y="250.28" width="134.69" height="5.38" style="fill:#e0e0e0"></rect><polygon points="143.32 247.66 151.67 250.28 16.98 250.28 25.5 247.66 143.32 247.66" style="fill:#ebebeb"></polygon><rect x="156.56" y="122.2" width="33.83" height="33.83" style="fill:#fafafa"></rect><rect x="193.45" y="122.2" width="33.83" height="33.83" style="fill:#fafafa"></rect><rect x="230.06" y="122.2" width="33.83" height="33.83" style="fill:#fafafa"></rect><rect x="266.49" y="122.2" width="33.83" height="33.83" style="fill:#fafafa"></rect><rect x="303.38" y="122.2" width="33.83" height="33.83" style="fill:#fafafa"></rect><rect x="339.99" y="122.2" width="33.83" height="33.83" style="fill:#fafafa"></rect><rect x="376.42" y="122.2" width="33.83" height="33.83" style="fill:#fafafa"></rect><rect x="413.31" y="122.2" width="33.83" height="33.83" style="fill:#fafafa"></rect><rect x="449.93" y="122.2" width="33.83" height="33.83" style="fill:#fafafa"></rect><rect x="156.56" y="158.89" width="33.83" height="33.83" style="fill:#fafafa"></rect><rect x="193.45" y="158.89" width="33.83" height="33.83" style="fill:#fafafa"></rect><rect x="230.06" y="158.89" width="33.83" height="33.83" style="fill:#fafafa"></rect><rect x="266.49" y="158.89" width="33.83" height="33.83" style="fill:#fafafa"></rect><rect x="303.38" y="158.89" width="33.83" height="33.83" style="fill:#fafafa"></rect><rect x="339.99" y="158.89" width="33.83" height="33.83" style="fill:#fafafa"></rect><rect x="376.42" y="158.89" width="33.83" height="33.83" style="fill:#fafafa"></rect><rect x="413.31" y="158.89" width="33.83" height="33.83" style="fill:#fafafa"></rect><rect x="449.93" y="158.89" width="33.83" height="33.83" style="fill:#fafafa"></rect><rect x="156.56" y="49.03" width="33.83" height="33.83" style="fill:#fafafa"></rect><rect x="193.45" y="49.03" width="33.83" height="33.83" style="fill:#fafafa"></rect><rect x="230.06" y="49.03" width="33.83" height="33.83" style="fill:#fafafa"></rect><rect x="266.49" y="49.03" width="33.83" height="33.83" style="fill:#fafafa"></rect><rect x="303.38" y="49.03" width="33.83" height="33.83" style="fill:#fafafa"></rect><rect x="339.99" y="49.03" width="33.83" height="33.83" style="fill:#fafafa"></rect><rect x="376.42" y="49.03" width="33.83" height="33.83" style="fill:#fafafa"></rect><rect x="413.31" y="49.03" width="33.83" height="33.83" style="fill:#fafafa"></rect><rect x="449.93" y="49.03" width="33.83" height="33.83" style="fill:#fafafa"></rect><rect x="156.56" y="85.72" width="33.83" height="33.83" style="fill:#fafafa"></rect><rect x="193.45" y="85.72" width="33.83" height="33.83" style="fill:#fafafa"></rect><rect x="230.06" y="85.72" width="33.83" height="33.83" style="fill:#fafafa"></rect><rect x="266.49" y="85.72" width="33.83" height="33.83" style="fill:#fafafa"></rect><rect x="303.38" y="85.72" width="33.83" height="33.83" style="fill:#fafafa"></rect><rect x="339.99" y="85.72" width="33.83" height="33.83" style="fill:#fafafa"></rect><rect x="376.42" y="85.72" width="33.83" height="33.83" style="fill:#fafafa"></rect><rect x="413.31" y="85.72" width="33.83" height="33.83" style="fill:#fafafa"></rect><rect x="449.93" y="85.72" width="33.83" height="33.83" style="fill:#fafafa"></rect><rect x="21.31" y="285.55" width="458.19" height="194.22" style="fill:#f5f5f5"></rect><rect x="16.98" y="274.58" width="462.52" height="11.88" style="fill:#ebebeb"></rect><path d="M162.52,278.7c.14,0,.26,45,.26,100.55s-.12,100.57-.26,100.57-.26-45-.26-100.57S162.38,278.7,162.52,278.7Z" style="fill:#e0e0e0"></path><path d="M339.44,278.7c.14,0,.26,45,.26,100.55s-.12,100.57-.26,100.57-.26-45-.26-100.57S339.29,278.7,339.44,278.7Z" style="fill:#e0e0e0"></path><path d="M148.3,332.09s0-.21,0-.62,0-1,0-1.82c0-1.61,0-4,0-7,0-6.11-.05-15-.09-26.17l.17.17-113.62.09h0l.26-.26v35.62l-.26-.25,81.23.12,23.77.07,6.39,0,1.66,0h.58l-.54,0-1.63,0-6.34,0-23.72.07-81.4.12h-.25v-.26c0-11.28,0-23.27,0-35.62v-.26h.27l113.62.1h.17v.16c0,11.22-.07,20.14-.1,26.27,0,3,0,5.37,0,7,0,.78,0,1.37,0,1.79S148.3,332.09,148.3,332.09Z" style="fill:#e0e0e0"></path><path d="M148.3,459.86s0-.19,0-.56,0-.92,0-1.63c0-1.44,0-3.57,0-6.34,0-5.55,0-13.67-.06-24,0-20.63-.07-50.07-.12-85.35l.23.23-113.62,0h0l.26-.26c0,43.26,0,83.73,0,117.88l-.23-.22,82.34.12,23.09.05,6.09,0h2.11l-.51,0h-1.55l-6.05,0-23,.05-82.48.12h-.22v-.23c0-34.15,0-74.62,0-117.88v-.26h.27l113.62,0h.23V342c-.05,35.34-.09,64.83-.12,85.5,0,10.3,0,18.4-.06,23.94,0,2.75,0,4.87,0,6.3,0,.7,0,1.24,0,1.61S148.3,459.86,148.3,459.86Z" style="fill:#e0e0e0"></path><path d="M93,459.44c-.14,0-.26-25.95-.26-58s.12-58,.26-58,.26,25.95.26,58S93.13,459.44,93,459.44Z" style="fill:#e0e0e0"></path><path d="M94.89,315.86a3.58,3.58,0,1,1-3.57-3.58A3.57,3.57,0,0,1,94.89,315.86Z" style="fill:#e0e0e0"></path><path d="M107.78,406.52a3.58,3.58,0,1,1-3.22-3.89A3.57,3.57,0,0,1,107.78,406.52Z" style="fill:#e0e0e0"></path><path d="M84.09,406.19a3.58,3.58,0,1,1-3.57-3.58A3.57,3.57,0,0,1,84.09,406.19Z" style="fill:#e0e0e0"></path><path d="M467.06,332.09s0-.21,0-.62,0-1,0-1.82c0-1.61,0-4,0-7,0-6.11-.06-15-.1-26.17l.17.17-113.62.09h0l.26-.26c0,12.35,0,24.34,0,35.62l-.25-.25,81.22.12,23.78.07,6.39,0,1.66,0h.57l-.54,0-1.63,0-6.34,0-23.72.07-81.39.12h-.26V296.21h.26l113.62.1h.17v.16c0,11.22-.07,20.14-.09,26.27,0,3,0,5.37,0,7,0,.78,0,1.37,0,1.79S467.06,332.09,467.06,332.09Z" style="fill:#e0e0e0"></path><path d="M467.06,459.86s0-.19,0-.56,0-.92,0-1.63c0-1.44,0-3.57,0-6.34,0-5.55,0-13.67-.06-24,0-20.63-.07-50.07-.11-85.35l.22.23-113.61,0h0l.26-.26c0,43.26,0,83.73,0,117.88l-.22-.22,82.33.12,23.09.05,6.09,0h2.11l-.51,0H465l-6.05,0-23,.05-82.47.12h-.23v-.23c0-34.15,0-74.62,0-117.88v-.26h.27l113.61,0h.23V342c-.05,35.34-.09,64.83-.12,85.5,0,10.3,0,18.4-.06,23.94,0,2.75,0,4.87,0,6.3,0,.7,0,1.24,0,1.61S467.06,459.86,467.06,459.86Z" style="fill:#e0e0e0"></path><path d="M411.75,459.44c-.15,0-.27-25.95-.27-58s.12-58,.27-58,.26,25.95.26,58S411.89,459.44,411.75,459.44Z" style="fill:#e0e0e0"></path><path d="M413.65,315.86a3.57,3.57,0,1,1-3.57-3.58A3.57,3.57,0,0,1,413.65,315.86Z" style="fill:#e0e0e0"></path><path d="M426.54,406.52a3.57,3.57,0,1,1-3.22-3.89A3.56,3.56,0,0,1,426.54,406.52Z" style="fill:#e0e0e0"></path><path d="M402.85,406.19a3.57,3.57,0,1,1-3.57-3.58A3.57,3.57,0,0,1,402.85,406.19Z" style="fill:#e0e0e0"></path><path d="M318,332.09s0-.21,0-.62,0-1,0-1.8c0-1.6,0-3.94,0-7,0-6.09-.05-15-.09-26.22l.16.16-137.84.1h0l.26-.26c0,12.22,0,24.15,0,35.62l-.25-.25,98.36.11,29,.08,7.8,0,2,0h.7s-.22,0-.67,0l-2,0-7.75,0-28.9.07-98.54.12h-.26V296.21h.27l137.84.11h.16v.15c0,11.28-.06,20.2-.08,26.31,0,3,0,5.36,0,7,0,.77,0,1.36,0,1.77S318,332.09,318,332.09Z" style="fill:#e0e0e0"></path><path d="M318,459.86s0-.74,0-2.17,0-3.55,0-6.3c0-5.52,0-13.6-.06-23.9,0-20.59-.06-50-.11-85.51l.22.22-137.84,0h0l.26-.26c0,42.77,0,83.08,0,117.88l-.23-.23,99.67.12,28.15.06,7.45,0H318l-.63,0h-1.9l-7.4,0-28.1.06-99.82.12h-.23v-.24c0-34.8,0-75.11,0-117.88v-.26h.27l137.84,0h.22V342c-.05,35.53-.09,65-.12,85.64,0,10.28,0,18.35-.05,23.86,0,2.73,0,4.83,0,6.26S318,459.86,318,459.86Z" style="fill:#e0e0e0"></path><path d="M255.44,459.44c-.14,0-.26-25.95-.26-58s.12-58,.26-58,.26,25.95.26,58S255.59,459.44,255.44,459.44Z" style="fill:#e0e0e0"></path><path d="M259,314.66a3.58,3.58,0,1,1-3.58-3.57A3.57,3.57,0,0,1,259,314.66Z" style="fill:#e0e0e0"></path><path d="M270.24,406.52a3.57,3.57,0,1,1-3.22-3.89A3.56,3.56,0,0,1,270.24,406.52Z" style="fill:#e0e0e0"></path><path d="M246.55,406.19a3.58,3.58,0,1,1-3.57-3.58A3.57,3.57,0,0,1,246.55,406.19Z" style="fill:#e0e0e0"></path></g><g id="freepik--Floor--inject-325"><path d="M468.69,479.77c0,.14-100.16.26-223.68.26s-223.7-.12-223.7-.26,100.14-.26,223.7-.26S468.69,479.62,468.69,479.77Z" style="fill:#263238"></path></g><g id="freepik--Bottle--inject-325"><path d="M149.53,257.05a.1.1,0,0,1,0,0V257c-.07-2.89-2.25-5.86-4.44-8.79a12.59,12.59,0,0,1-2-6.5c0-.2,0-.38,0-.55h.19a1.55,1.55,0,0,0,1.64-1.46l0-1.25a1.32,1.32,0,0,0-.14-.56,1.7,1.7,0,0,0-1.56-.85l-10.49.21a1.56,1.56,0,0,0-1.64,1.47l0,1.25a1.56,1.56,0,0,0,1.7,1.39H133c0,.16,0,.34,0,.54a12.68,12.68,0,0,1-1.72,6.58c-2.08,3-4.14,6.07-4.1,9,0,0,0,0,0,.06s0,0,0,0l.32,33a2.08,2.08,0,0,0,2.12,2.06l18.21-.35a2.09,2.09,0,0,0,2-2.1Z" style="fill:#ebebeb"></path><path d="M149.53,257.05a3.85,3.85,0,0,1,0,.39c0,.28,0,.65,0,1.13,0,1,0,2.48.09,4.34.06,3.8.14,9.24.24,16,0,3.37.09,7.06.13,11a2.32,2.32,0,0,1-1.79,2.45,12.63,12.63,0,0,1-1.59.08l-1.57,0-6.51.14-6.84.14-1.76,0a3.8,3.8,0,0,1-.94,0,2.24,2.24,0,0,1-.9-.41,2.33,2.33,0,0,1-.93-1.72c0-.6,0-1.21,0-1.82,0-4.85-.1-9.87-.15-15,0-3.06-.06-6.06-.09-9,0-1.48,0-2.94,0-4.39,0-.72,0-1.44,0-2.16A10.74,10.74,0,0,1,127,256a13.19,13.19,0,0,1,1.58-4c.69-1.21,1.46-2.35,2.22-3.46,1.58-2.13,1.9-4.84,1.92-7.29l.24.22a2.11,2.11,0,0,1-1.7-.6,1.57,1.57,0,0,1-.41-.86c0-.33,0-.56,0-.85a4.87,4.87,0,0,1,0-.85,1.63,1.63,0,0,1,.43-.82,2.09,2.09,0,0,1,1.61-.58l6.06-.11,2.84,0,1.37,0a2.08,2.08,0,0,1,1.37.47,1.59,1.59,0,0,1,.53,1.3c0,.44,0,.83,0,1.3a1.83,1.83,0,0,1-2,1.41l.17-.17a12.75,12.75,0,0,0,1.92,6.95,41.52,41.52,0,0,1,3.07,4.58,10.93,10.93,0,0,1,1.21,3.23,4.57,4.57,0,0,1,.08,1.18s0-.4-.17-1.16a11.35,11.35,0,0,0-1.28-3.16,41.8,41.8,0,0,0-3.12-4.52,13,13,0,0,1-2.05-7.09v-.19l.17,0a1.49,1.49,0,0,0,1.64-1.13c0-.36,0-.82,0-1.24a1.18,1.18,0,0,0-.42-1,1.56,1.56,0,0,0-1.11-.37l-1.37,0-2.84.06-6.06.13a1.7,1.7,0,0,0-1.3.46,1.13,1.13,0,0,0-.31.59,6.4,6.4,0,0,0,0,.76c0,.27,0,.57,0,.8a1.09,1.09,0,0,0,.29.6,1.65,1.65,0,0,0,1.36.46l.23,0v.25a17.56,17.56,0,0,1-.37,3.87,9.63,9.63,0,0,1-1.6,3.71c-.76,1.11-1.52,2.24-2.19,3.43a12.51,12.51,0,0,0-1.52,3.8,11,11,0,0,0-.11,2.09q0,1.07,0,2.16c0,1.45,0,2.91,0,4.39,0,2.95.06,6,.09,9,.05,5.14.09,10.16.14,15,0,.6,0,1.2,0,1.8a1.81,1.81,0,0,0,.72,1.34,1.85,1.85,0,0,0,.71.33,3.1,3.1,0,0,0,.82,0l1.76,0,6.84-.12,6.51-.12c1,0,2.14,0,3.07-.09a1.89,1.89,0,0,0,1.46-2c0-4-.05-7.65-.07-11,0-6.72-.05-12.17-.07-16,0-1.86,0-3.32,0-4.34,0-.48,0-.85,0-1.13A2.06,2.06,0,0,1,149.53,257.05Z" style="fill:#263238"></path><path d="M142.48,241.05a38.12,38.12,0,0,1-4.66.23,42.57,42.57,0,0,1-4.68,0,38.57,38.57,0,0,1,4.67-.23A42.43,42.43,0,0,1,142.48,241.05Z" style="fill:#263238"></path><path d="M148.64,261.52a3.33,3.33,0,0,0-3.2.19,12.13,12.13,0,0,1-3.05,1.39,5.88,5.88,0,0,1-3.77-.88,23.07,23.07,0,0,0-3.52-1.83,6.77,6.77,0,0,0-6.95,1.78l.82,28.27a1.33,1.33,0,0,0,1.36,1.29l17-.35a1.32,1.32,0,0,0,1.3-1.33Z" style="fill:#FFE083"></path><path d="M128.5,274.14s3.35,5.66,8,1.76c8.09-6.76,12.11-2.64,12.11-2.64v3.43s-3.33-2.68-7-.79-5.65,9.19-13,2.88Z" style="fill:#fff;opacity:0.30000000000000004"></path><circle cx="136.78" cy="270.4" r="1.61" style="fill:#fff;opacity:0.30000000000000004"></circle><path d="M144.47,280.75a.94.94,0,1,1-.94-.94A.94.94,0,0,1,144.47,280.75Z" style="fill:#fff;opacity:0.30000000000000004"></path></g><g id="freepik--Glass--inject-325"><rect x="92.89" y="258.37" width="17.51" height="34.13" style="fill:#e0e0e0"></rect><path d="M110.71,258.37s-.18.2-.57.48a11.46,11.46,0,0,1-1.76,1,16,16,0,0,1-13,.1,12.49,12.49,0,0,1-1.78-1c-.39-.28-.6-.44-.58-.47s.94.49,2.5,1.1a17.47,17.47,0,0,0,12.75-.09C109.78,258.87,110.66,258.29,110.71,258.37Z" style="fill:#263238"></path><path d="M98.05,292.41a4.24,4.24,0,0,1-.42-1.22,8.92,8.92,0,0,0-1.27-2.72A4.83,4.83,0,0,0,94,286.75c-.73-.23-1.23-.17-1.23-.25s.49-.26,1.32-.1a4.52,4.52,0,0,1,2.67,1.76A7.21,7.21,0,0,1,98,291.1C98.13,291.9,98.12,292.4,98.05,292.41Z" style="fill:#263238"></path><path d="M105.92,292.57a20.24,20.24,0,0,1-.56-2.15,11.34,11.34,0,0,0-.79-2.23,2.46,2.46,0,0,0-2.17-1.37A3.21,3.21,0,0,0,100,287.9a5.1,5.1,0,0,0-1.11,2c-.36,1.29-.32,2.17-.41,2.17a4.53,4.53,0,0,1,.06-2.27,5,5,0,0,1,1.11-2.24,3.6,3.6,0,0,1,2.8-1.28,3,3,0,0,1,1.59.5,2.9,2.9,0,0,1,1,1.17,9.6,9.6,0,0,1,.73,2.36A6.16,6.16,0,0,1,105.92,292.57Z" style="fill:#263238"></path><path d="M110.36,285.79a9.47,9.47,0,0,0-3,2.78,9.7,9.7,0,0,0-1.07,4c-.06,0-.23-.46-.23-1.26a5.91,5.91,0,0,1,3.12-5.13C109.85,285.8,110.35,285.73,110.36,285.79Z" style="fill:#263238"></path></g><g id="freepik--speech-bubble--inject-325"><path d="M283.31,109.7l-1-6.46a25,25,0,1,0-6,6.66h0Z" style="fill:#fff"></path><path d="M283.31,109.7s-.14,0-.43,0l-1.34.06-5.23.21a.09.09,0,0,1-.1-.09s0,0,0-.06h0l.14.13a24.83,24.83,0,0,1-11,4.94,25.73,25.73,0,0,1-8,.14,25.09,25.09,0,0,1-8.58-2.91,25.42,25.42,0,0,1-7.59-6.53,24.39,24.39,0,0,1-4.69-9.75,25.76,25.76,0,0,1,0-11.52,24.68,24.68,0,0,1,5.56-10.71,25.85,25.85,0,0,1,4.62-4.14c.87-.55,1.73-1.11,2.63-1.58l1.38-.65.68-.32.71-.25a25.59,25.59,0,0,1,11.54-1.47A24.48,24.48,0,0,1,274,68.76a25.57,25.57,0,0,1,7.4,6.86,25,25,0,0,1,3.88,8.26c.15.7.29,1.39.43,2.07s.17,1.37.25,2a21.87,21.87,0,0,1,.05,3.87,24.67,24.67,0,0,1-3.69,11.43v-.06c.31,2.09.55,3.71.72,4.84q.11.78.18,1.23a3.48,3.48,0,0,1,0,.41s0-.15-.08-.44-.13-.72-.23-1.25l-.81-4.76s0,0,0-.06a25,25,0,0,0,3.55-11.36,22.37,22.37,0,0,0-.08-3.82c-.08-.65-.12-1.33-.25-2s-.29-1.35-.44-2a24.92,24.92,0,0,0-3.86-8.12,25.27,25.27,0,0,0-7.3-6.72,24.22,24.22,0,0,0-10.16-3.46,25.07,25.07,0,0,0-11.33,1.46l-.7.24-.67.32-1.35.64c-.88.46-1.72,1-2.58,1.55A24.91,24.91,0,0,0,242.5,74,24.12,24.12,0,0,0,237,84.45a25.22,25.22,0,0,0-.06,11.3,24.19,24.19,0,0,0,4.59,9.6A25.3,25.3,0,0,0,249,111.8a25,25,0,0,0,8.44,2.9,25.47,25.47,0,0,0,7.87-.09,25,25,0,0,0,10.93-4.79.1.1,0,0,1,.14,0,.11.11,0,0,1,0,.11v0l-.08-.16,5.18-.1h1.36C283.15,109.69,283.31,109.7,283.31,109.7Z" style="fill:#263238"></path><path d="M272,88.64a6.94,6.94,0,0,0-1.73-3.76,6.65,6.65,0,0,0-3.42-2.15,5.42,5.42,0,0,0-4.18.78,5.32,5.32,0,0,0-1.72,1.9,5.31,5.31,0,0,0-1.57-1.73,5.42,5.42,0,0,0-4.16-.86,6.56,6.56,0,0,0-3.46,2.09,6.83,6.83,0,0,0-1.8,3.71,8.39,8.39,0,0,0,1,5.16,11.85,11.85,0,0,0,4,3.86c2.65,1.63,6.14,3.68,6.14,3.68s3-2.19,5.67-3.77A11.87,11.87,0,0,0,271,93.77,8.41,8.41,0,0,0,272,88.64Z" style="fill:#FFE083"></path></g><g id="freepik--cookies-box--inject-325"><rect x="151.98" y="211.7" width="32.53" height="80.71" style="fill:#455a64"></rect><rect x="151.98" y="211.7" width="9.16" height="80.88" style="opacity:0.30000000000000004"></rect><circle cx="172.96" cy="240.6" r="8.34" transform="translate(-102.95 348.66) rotate(-75.68)" style="fill:#ae7461"></circle><path d="M178.73,224.74H167.19a1.57,1.57,0,0,1-1.58-1.57h0a1.58,1.58,0,0,1,1.58-1.58h11.54a1.58,1.58,0,0,1,1.58,1.58h0A1.57,1.57,0,0,1,178.73,224.74Z" style="fill:#fafafa"></path><path d="M180.59,254.41a62.72,62.72,0,0,1-8.15.26,62.81,62.81,0,0,1-8.16-.26,65,65,0,0,1,8.16-.26A64.92,64.92,0,0,1,180.59,254.41Z" style="fill:#fff"></path><path d="M180.59,258.66a64.92,64.92,0,0,1-8.15.26,65,65,0,0,1-8.16-.26,62.81,62.81,0,0,1,8.16-.26A62.72,62.72,0,0,1,180.59,258.66Z" style="fill:#fff"></path><path d="M180.59,262.9a62.72,62.72,0,0,1-8.15.26,62.81,62.81,0,0,1-8.16-.26,65,65,0,0,1,8.16-.26A64.92,64.92,0,0,1,180.59,262.9Z" style="fill:#fff"></path><path d="M180.59,267.15a64.92,64.92,0,0,1-8.15.26,65,65,0,0,1-8.16-.26,62.81,62.81,0,0,1,8.16-.26A62.72,62.72,0,0,1,180.59,267.15Z" style="fill:#fff"></path><path d="M180.59,271.39a64.92,64.92,0,0,1-8.15.26,65,65,0,0,1-8.16-.26,65,65,0,0,1,8.16-.26A64.92,64.92,0,0,1,180.59,271.39Z" style="fill:#fff"></path></g><g id="freepik--Drink--inject-325"><rect x="236.91" y="258.37" width="17.51" height="34.13" style="fill:#e0e0e0"></rect><path d="M238.42,267.15H253.3a0,0,0,0,1,0,0v21.65a2.28,2.28,0,0,1-2.28,2.28H240.69a2.28,2.28,0,0,1-2.28-2.28V267.15A0,0,0,0,1,238.42,267.15Z" style="fill:#FFE083"></path><path d="M254.73,258.37s-.19.2-.58.48a11,11,0,0,1-1.76,1,15.77,15.77,0,0,1-6.51,1.44,15.94,15.94,0,0,1-6.53-1.34,12.28,12.28,0,0,1-1.77-1c-.4-.28-.6-.44-.58-.47s.93.49,2.49,1.1a17.47,17.47,0,0,0,12.75-.09C253.8,258.87,254.67,258.29,254.73,258.37Z" style="fill:#263238"></path><path d="M242.07,292.41c-.08,0-.2-.47-.43-1.22a8.92,8.92,0,0,0-1.27-2.72,4.83,4.83,0,0,0-2.34-1.72c-.72-.23-1.22-.17-1.23-.25s.49-.26,1.32-.1a4.49,4.49,0,0,1,2.67,1.76A7.24,7.24,0,0,1,242,291.1,2.93,2.93,0,0,1,242.07,292.41Z" style="fill:#263238"></path><path d="M249.94,292.57a17.61,17.61,0,0,1-.56-2.15,10.8,10.8,0,0,0-.8-2.23,2.46,2.46,0,0,0-2.17-1.37A3.19,3.19,0,0,0,244,287.9a4.86,4.86,0,0,0-1.11,2c-.36,1.29-.32,2.17-.41,2.17a4.59,4.59,0,0,1,0-2.27,5,5,0,0,1,1.11-2.24,3.61,3.61,0,0,1,2.81-1.28A2.91,2.91,0,0,1,249,288a10.06,10.06,0,0,1,.73,2.36A6.77,6.77,0,0,1,249.94,292.57Z" style="fill:#263238"></path><path d="M254.38,285.79a9.47,9.47,0,0,0-3,2.78,9.81,9.81,0,0,0-1.08,4c-.06,0-.22-.46-.22-1.26a5.86,5.86,0,0,1,.85-3,6,6,0,0,1,2.26-2.14C253.86,285.8,254.36,285.73,254.38,285.79Z" style="fill:#263238"></path></g><g id="freepik--Banana--inject-325"><path d="M219.34,282.15c.22-.11,5.09-.72,5.09-.72l1.23,3.15s-3,4.17-10.08,6-19.73-1.5-19.73-1.5L192.43,282l6.22-1.82Z" style="fill:#FFE083"></path><path d="M219.34,282.15c.22-.11,5.09-.72,5.09-.72l1.23,3.15s-3,4.17-10.08,6-19.73-1.5-19.73-1.5L192.43,282l6.22-1.82Z" style="opacity:0.30000000000000004"></path><path d="M225.84,261.79s.12,6.54-7.81,11.93l-12.33,4.94-11.62-5.41L188,270.1l-3.1-6,.75-.66s2.08,3.09,3.6,3.89c0,0,2.43-1.2,7,.41s12.66.78,18.14-1.87a37.89,37.89,0,0,0,8.85-5.86l2.57,1.76Z" style="fill:#FFE083"></path><path d="M198.41,275.27a20.73,20.73,0,0,0,10.79.32c8.83-2.5,15.29-13.23,15.29-13.23l1-.82.35.24h0s.12,6.54-7.81,11.93l-12.33,4.94Z" style="opacity:0.30000000000000004"></path><polygon points="225.78 284.62 224.29 284.34 223.72 282.94 224.43 281.43 225.72 282.55 226.12 283.98 225.78 284.62" style="fill:#263238"></polygon><path d="M227.58,273.38l-1.83-2.47s-11.12,5.24-19.4,4.12-12.6-5.2-14.43-5.49a20.08,20.08,0,0,0-3.24-.24,10.13,10.13,0,0,1-3-5.85s-2.38,2.17-2.82,2,2,7.16,2,7.16,10.37,9.7,13,11.45,7.3,1.75,11.59,1.22S224.88,281.8,227.58,273.38Z" style="fill:#FFE083"></path><path d="M227.58,273.38s0,.08-.07.24-.15.44-.26.74-.13.35-.21.54-.2.4-.32.62l-.39.71c-.14.25-.34.5-.53.77-1.46,2.17-4.51,4.69-8.89,6.44a31.69,31.69,0,0,1-7.43,2,27.29,27.29,0,0,1-8.87-.08,9.24,9.24,0,0,1-2.28-.8,12.43,12.43,0,0,1-2-1.42c-1.28-1-2.54-2.13-3.82-3.26-2.55-2.26-5.16-4.65-7.81-7.13l-.05,0,0-.06-1.12-3.48c-.18-.62-.37-1.24-.55-1.86l-.25-.94-.11-.48a2.34,2.34,0,0,1,0-.26c0-.05,0-.09,0-.16a.51.51,0,0,1,0-.16.74.74,0,0,1,.09-.12.33.33,0,0,1,.3,0l-.26,0,2.47-1.79.36-.26,0,.44a8.58,8.58,0,0,0,3.26,5.5l-.16,0a18.1,18.1,0,0,1,3.46.29,17,17,0,0,1,3,1.51,34.39,34.39,0,0,0,5.68,2.63,29.23,29.23,0,0,0,5.63,1.34,21.84,21.84,0,0,0,5.24,0,44.25,44.25,0,0,0,8.51-1.91,55.93,55.93,0,0,0,5.51-2.07l.06,0,0,.06,1.35,1.9.32.46c.07.11.1.16.09.16l-.13-.15-.36-.45c-.33-.43-.79-1-1.41-1.82l.11,0a50.68,50.68,0,0,1-5.5,2.19,42.6,42.6,0,0,1-8.55,2,22.59,22.59,0,0,1-5.34.05,29.46,29.46,0,0,1-5.72-1.33,35.27,35.27,0,0,1-5.77-2.64,18.16,18.16,0,0,0-2.89-1.45,18.33,18.33,0,0,0-3.33-.27h-.1l-.06-.05a9,9,0,0,1-3.47-5.85l.41.18L183,265.62l-.18-.15s0,0,0,0a.13.13,0,0,0,.08.06s.08,0,.14,0h0a.26.26,0,0,0,0,.07,1.66,1.66,0,0,0,0,.22l.1.45.25.93c.18.61.37,1.23.55,1.85l1.11,3.46-.07-.1c2.65,2.47,5.26,4.86,7.8,7.12,1.27,1.13,2.53,2.23,3.79,3.26a12.44,12.44,0,0,0,1.93,1.38,9.17,9.17,0,0,0,2.17.76,26.9,26.9,0,0,0,8.71.12,31.44,31.44,0,0,0,7.35-1.92,19.87,19.87,0,0,0,8.87-6.23c.19-.26.39-.49.54-.74s.27-.48.4-.69.24-.41.34-.6l.22-.52.31-.7A1.85,1.85,0,0,1,227.58,273.38Z" style="fill:#263238"></path><polygon points="225.96 261.68 224.49 262.36 223.53 261.6 223.25 259.9 224.5 260.07 225.43 260.8 225.96 261.68" style="fill:#263238"></polygon><path d="M203.37,283.35c8.55.15,18.31-3.42,23.16-10.18l1,.16,0,.05c-2.7,8.42-13.84,11.33-18.14,11.86s-8.95.52-11.59-1.22c-.78-.52-2.26-1.75-3.95-3.22A22.62,22.62,0,0,0,203.37,283.35Z" style="opacity:0.30000000000000004"></path><polyline points="225.75 270.91 227.14 271.56 227.59 273.38 226.13 273.58 225.42 272.54 225.75 271.01" style="fill:#263238"></polyline><path d="M179.93,277.11c-.2-2.85,1.95-6.55,1.95-6.55l.28-4.56,2.84-2.46s-.85,4.52.31,7.26a13,13,0,0,1,5.41,5.52c1.72,3.2,7.16,9.15,13.06,10.88a98.3,98.3,0,0,0,13.33,2.63l.46,3.23s-8,6.38-21.36,1.69S180.13,280,179.93,277.11Z" style="fill:#FFE083"></path><polygon points="217.57 293.06 216.19 292.42 215.98 290.93 217.11 289.83 218.02 291.04 218.05 292.52 217.57 293.06" style="fill:#263238"></polygon><path d="M203.78,287.2l.23,0,.68.17c.59.14,1.47.35,2.61.6,2.28.49,5.62,1.13,9.83,1.65l.13,0,0,.13c.15,1,.3,2.09.47,3.22l0,.11-.09.06c-4.18,3-10.53,4.3-17.1,3a32.16,32.16,0,0,1-9.77-3.66l-1.18-.7-1.13-.8a25.68,25.68,0,0,1-2.17-1.76,23.46,23.46,0,0,1-3.69-4.35,18.79,18.79,0,0,1-2.91-7.26,8.42,8.42,0,0,1,.45-3.81,18.21,18.21,0,0,1,1.48-3.41l0,.11c.1-1.55.19-3.07.28-4.56v-.11l.08-.06,2.84-2.46.5-.43-.11.66a21.19,21.19,0,0,0-.3,3.69,9.62,9.62,0,0,0,.58,3.43l-.11-.11a13.06,13.06,0,0,1,4.17,3.58,16.93,16.93,0,0,1,1.38,2.15,17.09,17.09,0,0,0,1.28,2,29.93,29.93,0,0,0,5.56,5.59,22.16,22.16,0,0,0,4.33,2.63c1.06.48,1.67.64,1.66.68a9.3,9.3,0,0,1-1.71-.56,20.61,20.61,0,0,1-4.43-2.55,29.51,29.51,0,0,1-5.69-5.58,17.36,17.36,0,0,1-1.33-2,16.46,16.46,0,0,0-1.36-2.08,12.64,12.64,0,0,0-4-3.43l-.08-.05,0-.07a10.06,10.06,0,0,1-.64-3.59,22.38,22.38,0,0,1,.29-3.79l.39.22c-.92.8-1.87,1.62-2.83,2.47l.08-.17q-.14,2.24-.27,4.56v.06l0,.05a18.5,18.5,0,0,0-1.44,3.31,8.13,8.13,0,0,0-.42,3.59,18.36,18.36,0,0,0,2.84,7.05,23,23,0,0,0,3.6,4.25,24.78,24.78,0,0,0,2.13,1.73l1.1.78,1.15.69a31.82,31.82,0,0,0,9.61,3.63c6.44,1.32,12.71,0,16.78-2.81l-.07.17c-.15-1.13-.3-2.21-.44-3.22l.15.14a97.86,97.86,0,0,1-9.83-1.81c-1.14-.28-2-.52-2.6-.69l-.66-.21A.73.73,0,0,1,203.78,287.2Z" style="fill:#263238"></path><path d="M185.78,263.58s-1.07-3.24-1.93-3.44c-.53-.12-5.67,3.52-5.67,3.52a19.79,19.79,0,0,0,2.35,2.34,4,4,0,0,0,1.64.14Z" style="fill:#263238"></path></g><g id="freepik--Character--inject-325"><path d="M352.08,470c.13.13,5.38,9.8,3.75,11s-17.63,1.36-17.63,1.36L334.61,469l16.79,1.31" style="fill:#ffbf9d"></path><path d="M298.53,244s-7.88,25.06-8.22,46.12,15.2,85.15,18.12,98.84c2,9.32,21,80.7,21,80.7l22,.42s-13.34-94.77-13.34-104.69,1.45-62.8,1.45-62.8l3.54-40.25Z" style="fill:#FFE083"></path><path d="M330,384.46a2.63,2.63,0,0,0-1.8-1.4,1.92,1.92,0,0,0-2,.87,2.22,2.22,0,0,0-1.11-2.56,2.39,2.39,0,0,0-2.76.56,2.59,2.59,0,0,0-.36,2.83,2.17,2.17,0,0,0-2.79,2.87l1.87.23,6.8-.35a3,3,0,0,0,2-.58A2.11,2.11,0,0,0,330,384.46Z" style="fill:#fff"></path><path d="M379.19,251.29c-1.18.45-39.91,9.25-39.91,9.25S329.56,369.66,329,384s22.45,86.13,22.45,86.13l26.78.19s-4.62-40.81-7.1-55.63a129.11,129.11,0,0,1,0-43.37c1.61-9.2,10.57-45.5,14.75-69.89S379.19,251.29,379.19,251.29Z" style="fill:#FFE083"></path><path d="M311.45,277.26a2.79,2.79,0,0,1,.82.09,19,19,0,0,1,2.18.51,29.24,29.24,0,0,1,6.77,3,28.55,28.55,0,0,1,5.78,4.6,18.14,18.14,0,0,1,1.48,1.69c.32.42.48.66.45.68s-.83-.82-2.19-2.1a34,34,0,0,0-12.4-7.48A29.22,29.22,0,0,1,311.45,277.26Z" style="fill:#263238"></path><path d="M371.08,470.27l-.38,0-1.12,0c-1,0,.13-.14-1.76-.12l-16.42.07h-.12l0-.12c-2.61-8.85-5.94-20.29-9.69-33.47s-8-28.07-11.9-44c-.4-1.73-.81-3.44-1.13-5.18a27.16,27.16,0,0,1-.44-5.23c-.05-3.46,0-6.86.08-10.2.13-6.69.35-13.14.57-19.28.44-12.28.92-23.33,1.36-32.62s.82-16.79,1.12-22c.16-2.57.29-4.58.38-6,0-.68.09-1.2.13-1.55s.07-.53.07-.53c-.06,1.46-.52,11.75-1.33,30.05-.38,9.28-.83,20.34-1.24,32.62-.2,6.14-.41,12.58-.54,19.27-.06,3.34-.11,6.74-.07,10.18a27,27,0,0,0,.44,5.15c.31,1.71.72,3.42,1.12,5.15,3.9,15.89,8.17,30.79,11.84,44s7,24.62,9.55,33.51l-.16-.12,16.42.08c1.89,0,.74.2,1.76.21l1.12,0Z" style="fill:#263238"></path><path d="M362.5,277.31c0,.1-1.82-.06-4.73.1a40.43,40.43,0,0,0-5.06.63,39.2,39.2,0,0,0-11.73,4.2,41.48,41.48,0,0,0-4.31,2.73c-2.35,1.72-3.64,3-3.71,2.92a5.76,5.76,0,0,1,.86-.94c.29-.29.65-.64,1.1-1s.93-.83,1.53-1.26a36.18,36.18,0,0,1,4.29-2.86,40.53,40.53,0,0,1,5.76-2.64,39.83,39.83,0,0,1,6.12-1.62,34.88,34.88,0,0,1,5.14-.51c.73-.05,1.4,0,2,0s1.08,0,1.49.09A5.63,5.63,0,0,1,362.5,277.31Z" style="fill:#263238"></path><path d="M365.58,342.89a2.68,2.68,0,0,0-1.8-1.4,1.92,1.92,0,0,0-2,.87,2.22,2.22,0,0,0-1.11-2.56,2.39,2.39,0,0,0-2.76.56,2.59,2.59,0,0,0-.36,2.83,2.17,2.17,0,0,0-2.79,2.87l1.87.23,6.8-.35a2.93,2.93,0,0,0,2-.58A2.11,2.11,0,0,0,365.58,342.89Z" style="fill:#fff"></path><path d="M322.45,346.24a2.69,2.69,0,0,0-1.79-1.4,1.94,1.94,0,0,0-2,.88,2.21,2.21,0,0,0-1.1-2.56,2.39,2.39,0,0,0-2.77.56,2.59,2.59,0,0,0-.36,2.83,2.18,2.18,0,0,0-2.79,2.87l1.87.23,6.8-.35a3.07,3.07,0,0,0,2-.58A2.13,2.13,0,0,0,322.45,346.24Z" style="fill:#fff"></path><path d="M345.89,371.25a2.69,2.69,0,0,0-1.79-1.4,2,2,0,0,0-2,.88,2.21,2.21,0,0,0-1.1-2.56,2.39,2.39,0,0,0-2.77.56,2.61,2.61,0,0,0-.35,2.83,2.18,2.18,0,0,0-2.8,2.87l1.87.23,6.8-.35a3.07,3.07,0,0,0,2-.58A2.11,2.11,0,0,0,345.89,371.25Z" style="fill:#fff"></path><path d="M366.83,445.41A2.68,2.68,0,0,0,365,444a1.94,1.94,0,0,0-2,.88,2.21,2.21,0,0,0-1.11-2.56,2.38,2.38,0,0,0-2.76.56,2.59,2.59,0,0,0-.36,2.83,2.17,2.17,0,0,0-2.79,2.87l1.87.23,6.8-.35a3.07,3.07,0,0,0,2-.58A2.13,2.13,0,0,0,366.83,445.41Z" style="fill:#fff"></path><path d="M361.17,402.78a2.67,2.67,0,0,0-1.79-1.4,1.94,1.94,0,0,0-2,.88,2.21,2.21,0,0,0-1.11-2.56,2.4,2.4,0,0,0-2.77.56,2.61,2.61,0,0,0-.35,2.83,2.17,2.17,0,0,0-2.79,2.87l1.87.23,6.8-.35a3,3,0,0,0,2-.58A2.11,2.11,0,0,0,361.17,402.78Z" style="fill:#fff"></path><path d="M336.56,425a2.66,2.66,0,0,0-1.8-1.4,1.93,1.93,0,0,0-2,.87,2.2,2.2,0,0,0-1.1-2.55,2.4,2.4,0,0,0-2.77.55,2.61,2.61,0,0,0-.36,2.84,2.17,2.17,0,0,0-2.79,2.87l1.87.22,6.8-.34a3.07,3.07,0,0,0,2-.58A2.13,2.13,0,0,0,336.56,425Z" style="fill:#fff"></path><path d="M351.36,319.5a2.66,2.66,0,0,0-1.79-1.4,1.93,1.93,0,0,0-2,.87,2.2,2.2,0,0,0-1.11-2.55,2.39,2.39,0,0,0-2.77.55,2.63,2.63,0,0,0-.35,2.84,2.17,2.17,0,0,0-2.79,2.87l1.86.22,6.81-.34a3,3,0,0,0,2-.58A2.11,2.11,0,0,0,351.36,319.5Z" style="fill:#fff"></path><path d="M312.06,314.61a2.71,2.71,0,0,0-1.8-1.4,1.94,1.94,0,0,0-2,.88,2.21,2.21,0,0,0-1.11-2.56,2.38,2.38,0,0,0-2.76.56,2.59,2.59,0,0,0-.36,2.83,2.17,2.17,0,0,0-2.79,2.87l1.87.23,6.8-.35a3,3,0,0,0,2-.58A2.13,2.13,0,0,0,312.06,314.61Z" style="fill:#fff"></path><path d="M376.6,470.32c.13.13,5.28,9.43,3.65,10.67s-17.63,1.36-17.63,1.36L359,469l16.79,1.31" style="fill:#ffbf9d"></path><path d="M378.94,287.1a2.61,2.61,0,0,0-1.79-1.4,1.92,1.92,0,0,0-2,.87A2.22,2.22,0,0,0,374,284a2.41,2.41,0,0,0-2.77.56,2.61,2.61,0,0,0-.35,2.83,2.17,2.17,0,0,0-2.79,2.87l1.87.23,6.8-.35a2.93,2.93,0,0,0,2-.58A2.1,2.1,0,0,0,378.94,287.1Z" style="fill:#fff"></path><path d="M253.83,218.21l31.22-9.66,1.41-22.62,20.57.91s0,38.83-3,42.25c-6.3,7-45.59,4.64-45.59,4.64Z" style="fill:#ffbf9d"></path><path d="M255.12,217.26l-6.47-5.56-7.56.69-6.38,2.7a2.18,2.18,0,0,0,1.53,1.72s-2.68.19-3.2,1.17.64,2.66,1.58,3.64a8.47,8.47,0,0,0,0,2.64,4.52,4.52,0,0,0,1.13,2.4l1.59.69a2.06,2.06,0,0,0-.3,2.29,6.07,6.07,0,0,0,2.38,2.1s-1.34.68-.81,1.8,1,1.62,1.86,1.89,9.19.74,10.92.15,17.69-4.49,17.69-4.49l-4.54-15.74Z" style="fill:#ffbf9d"></path><path d="M244.6,213.7l0,0v-.06c-.62-2.82-3.32-5.33-6-7.8a12.57,12.57,0,0,1-3.16-6c-.05-.2-.1-.37-.13-.53l.19,0a1.56,1.56,0,0,0,1.33-1.75l-.25-1.22a1.44,1.44,0,0,0-.25-.53,1.69,1.69,0,0,0-1.68-.53l-10.27,2.17a1.58,1.58,0,0,0-1.34,1.75l.26,1.23a1.57,1.57,0,0,0,1.93,1l.19,0c0,.16.06.34.1.54a12.65,12.65,0,0,1-.45,6.77c-1.48,3.36-2.93,6.75-2.35,9.58l0,0s0,0,0,.05l6.51,32.34a2.07,2.07,0,0,0,2.46,1.62l17.83-3.77a2.08,2.08,0,0,0,1.61-2.44Z" style="fill:#e0e0e0"></path><path d="M234.67,199.31a42.68,42.68,0,0,1-4.54,1.1,42.92,42.92,0,0,1-4.6.84,38.05,38.05,0,0,1,4.55-1.1A40.6,40.6,0,0,1,234.67,199.31Z" style="fill:#263238"></path><path d="M244.56,218.25a3.35,3.35,0,0,0-3.1.8,12.1,12.1,0,0,1-2.73,1.93,5.86,5.86,0,0,1-3.87-.16,22.92,22.92,0,0,0-3.8-1.13,6.76,6.76,0,0,0-6.49,3.05l6.12,27.62a1.32,1.32,0,0,0,1.57,1l16.62-3.54a1.33,1.33,0,0,0,1-1.55Z" style="fill:#fafafa"></path><path d="M248.73,211.74a130.65,130.65,0,0,0-14.22-1.81,4.79,4.79,0,0,0,1.55,4,7.35,7.35,0,0,0,4,1.79,3.33,3.33,0,0,1,1.43.4,3.45,3.45,0,0,1,1,1.3,7.14,7.14,0,0,0,12.37.07Z" style="fill:#ffbf9d"></path><path d="M223,223.78a3.36,3.36,0,0,0-2.65.69,2,2,0,0,0-.44,2.55,3,3,0,0,0,2.16,1,15.8,15.8,0,0,0,2.75.14c.9,0,2.21-.32,2.55-1.16a2.28,2.28,0,0,0-.61-2.1,4.82,4.82,0,0,0-2.43-1,10.44,10.44,0,0,0-2.37-.1" style="fill:#ffbf9d"></path><path d="M224.56,228a3.35,3.35,0,0,0-2.64.69,2,2,0,0,0-.44,2.55,3,3,0,0,0,2.16,1,14.87,14.87,0,0,0,2.75.14c.9,0,2.21-.32,2.55-1.15a2.28,2.28,0,0,0-.62-2.11,4.84,4.84,0,0,0-2.42-1,10.44,10.44,0,0,0-2.37-.1" style="fill:#ffbf9d"></path><path d="M225.8,232.29a3.36,3.36,0,0,0-2.65.69,2,2,0,0,0-.44,2.55,3,3,0,0,0,2.16,1,14.87,14.87,0,0,0,2.75.14c.9,0,2.22-.32,2.55-1.15a2.3,2.3,0,0,0-.61-2.11,4.87,4.87,0,0,0-2.43-1,10.44,10.44,0,0,0-2.37-.1" style="fill:#ffbf9d"></path><path d="M340.78,53.3a6.66,6.66,0,0,1,5.48-2.23,3.77,3.77,0,0,0,2.43-.18,5.23,5.23,0,0,0,1.11-1.39,3.37,3.37,0,0,1,4.84-.33,4,4,0,0,0,1,.89c1.64.78,3.29-2.32,4.93-1.53A3.82,3.82,0,0,0,358.83,50a1.73,1.73,0,0,0,.28,2.12c1.56,1.25,3.91-1.81,5.63-.78.93.55,1.12,2.08,2.18,2.29a3.52,3.52,0,0,0,1.24-.15,2.77,2.77,0,0,1,3,2.26c.18,1.18-.36,2.67.57,3.42a2.59,2.59,0,0,0,2.14.22,7.19,7.19,0,0,1-.65,3.19A4.35,4.35,0,0,1,375,68.37a9.25,9.25,0,0,1,2.61,2.45,3.22,3.22,0,0,1,.17,3.41,2.81,2.81,0,0,0-.43.7,1.62,1.62,0,0,0,0,.87,15.59,15.59,0,0,1,.83,3.31c0,1.14-.78,2.43-1.92,2.38-.27,0-.56-.09-.78.07a.76.76,0,0,0-.25.53,7.48,7.48,0,0,0,.27,2.43,3.33,3.33,0,0,1-.27,2.39,1.4,1.4,0,0,1-2.1.34L374.28,91c.22.74.42,1.65-.11,2.22-.69.76-2,.24-2.59-.6s-.78-1.9-1.38-2.72a6.54,6.54,0,0,1-.74-1c-.13-.3-.19-.67-.45-.87-.53-.4-1.29.35-1.19,1a3.55,3.55,0,0,0,1.08,1.63,1.67,1.67,0,0,1,.49,1.8c-.15.28-.44.47-.58.76-.5,1,1,1.87,1.17,3a2.66,2.66,0,0,1-1,2.16c-.68.74-2,1.36-2.5.49a8.14,8.14,0,0,1-.26-1,2.58,2.58,0,0,0-.83-.88,5.16,5.16,0,0,1-1.65-2.48c.89,1,1.84,2.33,1.29,3.55a5.45,5.45,0,0,1-1.05,1.3c-.73.82-1.16,1.87-1.87,2.71a2.56,2.56,0,0,1-2.91.93,2.47,2.47,0,0,1-4,2.63,2.23,2.23,0,0,0-.7-.57,1.67,1.67,0,0,0-1,.07,5.38,5.38,0,0,1-5.26-1.85l1-.39a12.44,12.44,0,0,1-5.6-1.39c-1.65-1-2.78-3.17-2-5,.33-.77,1-1.58.64-2.35a2.09,2.09,0,0,0-1.41-.92l-7-2.12a6.35,6.35,0,0,1-3.09-1.61,2.22,2.22,0,0,1,0-3.14,6.43,6.43,0,0,0-2.49-2.47c-1.17-.64-2.52-.89-3.71-1.47a3.59,3.59,0,0,1-2.29-3c0-1.33,1.81-2.44,2.77-1.51-.27-2-3.84-2-4.23-3.94-.32-1.6,1.71-2.53,2.72-3.81-.24-.55-.83-.89-1.08-1.43-.54-1.14.61-2.35,1.73-2.94s2.48-1.2,2.7-2.44-.91-2.65-.29-3.78a1.42,1.42,0,0,1,1.85-.55c.82-2.34,5.24-.79,6.41-3a.89.89,0,0,0,.12-.57.8.8,0,0,0-.24-.44,9.53,9.53,0,0,0-2-1.38,2,2,0,0,1-1-2c.25-.76,1.68-.8,1.7,0a1.77,1.77,0,0,1,2.74.56,1.92,1.92,0,0,1,2.39-.32,5.69,5.69,0,0,1,1.8,1.88" style="fill:#263238"></path><path d="M356.66,52.91s-.16,0-.42.11a2,2,0,0,0-.93.73,2.75,2.75,0,0,0-.52,1.76,8.07,8.07,0,0,0,.55,2.39l.05.14h-.15a5.08,5.08,0,0,0-3,1.21,3.93,3.93,0,0,0-1.4,3.26,3.63,3.63,0,0,0,1.55,2.84l.32.21-.38,0a4.59,4.59,0,0,0-3.23,1.78,4.41,4.41,0,0,0-.89,2.83,4.72,4.72,0,0,0,.47,1.94c.21.42.37.63.35.64s-.05,0-.13-.14a3.7,3.7,0,0,1-.3-.46,4.62,4.62,0,0,1,.32-4.94,4.79,4.79,0,0,1,3.39-1.91l-.06.24a4.11,4.11,0,0,1-1.33-5,4.46,4.46,0,0,1,1.15-1.51,5.28,5.28,0,0,1,3.15-1.25l-.1.15a7.81,7.81,0,0,1-.52-2.46,2.83,2.83,0,0,1,.59-1.84,2.07,2.07,0,0,1,1-.72,1.81,1.81,0,0,1,.32-.05Z" style="fill:#455a64"></path><path d="M374.23,70.73s0,0-.14.1a4.62,4.62,0,0,1-.42.25,6.52,6.52,0,0,1-1.75.56,7.16,7.16,0,0,1-2.82-.08,6.81,6.81,0,0,1-3.18-1.7l.2,0a5.66,5.66,0,0,1-3.75,3.1,4.3,4.3,0,0,1-4.63-2l.23,0a3.6,3.6,0,0,1-.94,1.61,4.74,4.74,0,0,1-1.38,1A6.56,6.56,0,0,1,353,74a12,12,0,0,1-1.77-.13,3.13,3.13,0,0,1-.62-.11,4.94,4.94,0,0,1,.63,0,16.46,16.46,0,0,0,1.76.06,6.48,6.48,0,0,0,2.59-.57,3.86,3.86,0,0,0,2.17-2.43l.07-.3.16.27a4.06,4.06,0,0,0,4.36,1.82,5.5,5.5,0,0,0,3.58-3l.08-.15.12.12a6.64,6.64,0,0,0,3,1.66,7.07,7.07,0,0,0,2.74.14A8,8,0,0,0,374.23,70.73Z" style="fill:#455a64"></path><path d="M367.17,84.56s0,.07-.09.17a.93.93,0,0,1-.48.27,4,4,0,0,1-2-.15,4.79,4.79,0,0,1-2.43-1.68,5,5,0,0,1-1-3.48v0l.2.13a5.69,5.69,0,0,1-3.51.81,6.3,6.3,0,0,1-2.8-.92,7.24,7.24,0,0,1-1.55-1.25,2.5,2.5,0,0,1-.45-.57,10.73,10.73,0,0,0,2.09,1.66,6.46,6.46,0,0,0,2.73.84,5.74,5.74,0,0,0,3.35-.79l.23-.15,0,.27v0a4.78,4.78,0,0,0,.91,3.3,4.69,4.69,0,0,0,2.29,1.65,4.24,4.24,0,0,0,1.91.23A.9.9,0,0,0,367.17,84.56Z" style="fill:#455a64"></path><path d="M337.27,55a7.59,7.59,0,0,0-.16,2.76,6,6,0,0,0,4,4.88,6.12,6.12,0,0,0,2.08.34h.17l0,.16a7.92,7.92,0,0,0-.07,2.9,8,8,0,0,0,.71,2.2,5.11,5.11,0,0,0,.44.76.61.61,0,0,0,.5.32.43.43,0,0,0,.35-.14c.05-.07.06-.12.07-.12s0,.06,0,.15a.45.45,0,0,1-.38.2.74.74,0,0,1-.61-.32,6.47,6.47,0,0,1-.48-.77,7.75,7.75,0,0,1-.74-5.24l.13.16a6.22,6.22,0,0,1-2.18-.35,6.12,6.12,0,0,1-4.13-5.1,6.13,6.13,0,0,1,.11-2.07,4.21,4.21,0,0,1,.16-.54C337.23,55,337.26,55,337.27,55Z" style="fill:#455a64"></path><path d="M350.64,83.8a2.41,2.41,0,0,1,2,.26,2.66,2.66,0,0,1,1.13,1.73,2,2,0,0,1-.07,1,2.24,2.24,0,0,1-.55.82,3.07,3.07,0,0,1-2.57.92,2.37,2.37,0,0,1-2-1.81,3,3,0,0,1,.1-1.36,2.89,2.89,0,0,1,1.33-1.88,3.85,3.85,0,0,1,1.82-.26" style="fill:#FFE083"></path><path d="M335.57,67.33a1.5,1.5,0,0,1,.47-.5,1.29,1.29,0,0,1,.89,0A24.49,24.49,0,0,1,354,81a1.69,1.69,0,0,1,.19,1,1.66,1.66,0,0,1-.59.78A21,21,0,0,1,350,85.24L334.06,69.52Z" style="fill:#FFE083"></path><path d="M352.16,86.84c3.9.55,7.63,3.9,9.5,7.37a25.25,25.25,0,0,1,2.56,11.44,1.4,1.4,0,0,1-.86-.62c-1.6-2-3.19-3.91-4.78-5.86a45.4,45.4,0,0,1-3.2-4.25,23.22,23.22,0,0,1-3.22-8.08" style="fill:#FFE083"></path><path d="M351,86.84c4.53,3.27,7,10,7.06,15.54s-1.87,11-4.35,16a1.92,1.92,0,0,1-.68-1.34q-1.07-5.26-2.12-10.53a64.6,64.6,0,0,1-1.21-7.43A32.89,32.89,0,0,1,351,86.84" style="fill:#FFE083"></path><path d="M297.37,101.13c.3-2.58-1.54-5.31-.76-7.78s1.83-2.65,1.83-2.65c-2.65-4.12,1.17-6,1.17-6a2.83,2.83,0,0,1-1-3.08c.37-1.72,1.74-2.33,2.27-3.15a8.51,8.51,0,0,0,.81-2c1.43-4.4,5.7-8,10.32-7.74a17.69,17.69,0,0,0,2.51.14,12,12,0,0,0,3.28-1c4.38-1.67,10-1.52,13,2.13a10.2,10.2,0,0,1,12.45,6.46c2.09.77,4.26,1.58,5.8,3.19s2.25,4.23,1,6.08c2.73,2.27.06,3.51.06,3.51s2.77.6,1.15,6.2c-.11.38,0,1.09.93,3.58,1,2.68-.93,5.33-3.33,6.89a3,3,0,0,0-1,.78,2.65,2.65,0,0,0-.25,1.46,7.3,7.3,0,0,1-5.13,6.73l-39,2.83c-1.37-.72-5.1-6.28-4.92-7.81a7.1,7.1,0,0,0,.22-1.88,6.6,6.6,0,0,0-1.17-2.18,4.47,4.47,0,0,1-.53-3.12C297.12,102.15,297.31,101.65,297.37,101.13Z" style="fill:#263238"></path><path d="M340.31,96.25c-.44-6.91-5.42-14.49-12.55-17.3a25.78,25.78,0,0,0-10.16-1.6,15.86,15.86,0,0,0-9,2.68c-2.1.68-9.39,8.53-9.17,16.39.26,8.73.91,19.38,2.54,25.77,3.26,12.83,13.4,13.57,13.4,13.57s.37,9.81.37,9.81L326,160.28,339.34,148l3.64-2.51Z" style="fill:#ffbf9d"></path><path d="M305.86,107.56a1.67,1.67,0,0,0,1.76,1.54,1.6,1.6,0,0,0,1.59-1.66,1.68,1.68,0,0,0-1.77-1.54A1.6,1.6,0,0,0,305.86,107.56Z" style="fill:#263238"></path><path d="M302.84,101.14c.23.2,1.41-.85,3.21-1s3.2.62,3.37.38-.16-.48-.77-.85a4.65,4.65,0,0,0-2.73-.57,4.41,4.41,0,0,0-2.52,1.08C302.88,100.65,302.73,101.06,302.84,101.14Z" style="fill:#263238"></path><path d="M314.67,114.37a12.41,12.41,0,0,0-3-.26c-.46,0-.91,0-1-.36a2.37,2.37,0,0,1,.18-1.39l1-3.62c1.43-5.15,2.42-9.37,2.21-9.42s-1.53,4.07-3,9.22c-.34,1.27-.67,2.48-1,3.64a2.67,2.67,0,0,0-.08,1.82,1.17,1.17,0,0,0,.82.6,3.14,3.14,0,0,0,.79,0A11.91,11.91,0,0,0,314.67,114.37Z" style="fill:#263238"></path><path d="M315.33,135.76a33.43,33.43,0,0,0,17.07-6.27s-3.8,9.61-16.94,9.59Z" style="fill:#ff9a6c"></path><path d="M302.57,95.21c.34.41,1.69,0,3.31,0s3,.29,3.31-.14c.14-.2-.07-.62-.67-1a4.93,4.93,0,0,0-2.69-.68,4.84,4.84,0,0,0-2.65.82C302.61,94.59,302.42,95,302.57,95.21Z" style="fill:#263238"></path><path d="M325.39,106.8a1.68,1.68,0,0,1-1.53,1.78,1.6,1.6,0,0,1-1.8-1.42,1.68,1.68,0,0,1,1.52-1.78A1.61,1.61,0,0,1,325.39,106.8Z" style="fill:#263238"></path><path d="M327.5,99.58c-.19.23-1.51-.64-3.32-.53s-3.07,1.07-3.28.86.09-.5.64-1a4.71,4.71,0,0,1,2.62-1,4.45,4.45,0,0,1,2.65.7C327.39,99.1,327.6,99.48,327.5,99.58Z" style="fill:#263238"></path><path d="M328.82,94c-.33.43-1.75.08-3.42.15s-3.07.45-3.42,0c-.16-.2,0-.63.64-1a5.47,5.47,0,0,1,5.51-.15C328.75,93.39,329,93.8,328.82,94Z" style="fill:#263238"></path><path d="M339.35,108.79c-.08-1,.83-3.36,1.77-3.6,2.52-.63,7.15-.85,7.79,5.64.88,8.87-8.21,7.92-8.25,7.67S339.65,112.14,339.35,108.79Z" style="fill:#ffbf9d"></path><path d="M342.79,115s.16.09.44.18a1.49,1.49,0,0,0,1.15-.09c.91-.43,1.55-2,1.43-3.6a5,5,0,0,0-.65-2.17,1.79,1.79,0,0,0-1.28-1.08.8.8,0,0,0-.87.52c-.09.26,0,.43-.06.45s-.21-.13-.17-.5a1,1,0,0,1,.29-.59,1.17,1.17,0,0,1,.83-.32,2.18,2.18,0,0,1,1.75,1.22,5.14,5.14,0,0,1,.78,2.42c.12,1.8-.63,3.56-1.87,4.06a1.66,1.66,0,0,1-1.44-.1C342.82,115.23,342.76,115,342.79,115Z" style="fill:#ff9a6c"></path><path d="M300.76,84.9c.92-2.06,1-3.1,2.58-4.71a21,21,0,0,1,4.57-3.28c4.28-2.47,9.1-4.67,14-4a24.57,24.57,0,0,1,7.44,2.75,27.53,27.53,0,0,1,5.21,3.14,20.15,20.15,0,0,1,3.54,4A27.63,27.63,0,0,1,343,94.46c.63,4.21,4.14,7.69,1.94,11.33-.17.28-4.51,1.55-4.81,1.7-.69.35-1.55-.37-1.6-1.14a2.83,2.83,0,0,1,.95-2,2.16,2.16,0,0,1-2-2.22A5.85,5.85,0,0,1,338.66,99a.74.74,0,0,0,.16-.39c0-.38-.43-.58-.77-.75a3,3,0,0,1-.69-4.65,4,4,0,0,1-3.16-4.86,1.25,1.25,0,0,0,.05-1c-.17-.29-.55-.35-.87-.42a5.12,5.12,0,0,1-3.88-5.46,12.78,12.78,0,0,1-3.7.14,4.35,4.35,0,0,1-3.08-1.87,4.83,4.83,0,0,1-8.11,1.1,12.59,12.59,0,0,1-6.18-.45,6,6,0,0,1-3.54,4.5c-.35.15-.77.29-.92.65a1.5,1.5,0,0,0,0,.73c.17,1.24-.63,1.83-1.23,2.93s-1.67,2.73-2.89,2.49a5.19,5.19,0,0,1-2.4,5l-.05-1.47C300.33,93.35,299.44,87.87,300.76,84.9Z" style="fill:#263238"></path><path d="M326.41,68.37a7.11,7.11,0,0,1-.69-.28,6,6,0,0,0-2-.39,5.56,5.56,0,0,0-2.88.68A5.85,5.85,0,0,0,318.41,71a4.55,4.55,0,0,0-.35,1,1.13,1.13,0,0,0,.14.93l.25.28-.37-.07a3.67,3.67,0,0,0-2.72.58A3.55,3.55,0,0,0,314,75.56a3.94,3.94,0,0,0-.21,1.5c0,.36.06.55,0,.55s0,0-.05-.13a2.1,2.1,0,0,1-.08-.41,3.63,3.63,0,0,1,.14-1.56,3.71,3.71,0,0,1,1.39-1.91,3.88,3.88,0,0,1,2.9-.64l-.13.21a1.39,1.39,0,0,1-.21-1.15,5.79,5.79,0,0,1,.37-1.11,6,6,0,0,1,2.57-2.75,5.83,5.83,0,0,1,5-.17,4.08,4.08,0,0,1,.5.27Z" style="fill:#455a64"></path><path d="M341.74,77.28a1.68,1.68,0,0,1-.28.35,6.51,6.51,0,0,1-.95.79,4.39,4.39,0,0,1-1.72.69,3.22,3.22,0,0,1-2.27-.47l.2,0-.23.39c-.08.12-.18.25-.27.37a5.38,5.38,0,0,1-2.1,1.58,5.62,5.62,0,0,1-2.09.46,4.65,4.65,0,0,1-1.43-.2,2,2,0,0,1-.48-.2,8.05,8.05,0,0,0,1.9.21,5.61,5.61,0,0,0,2-.49,5.39,5.39,0,0,0,2-1.52l.26-.36.21-.36.08-.13.12.08a3,3,0,0,0,2.08.45,4.28,4.28,0,0,0,1.66-.6C341.28,77.73,341.71,77.25,341.74,77.28Z" style="fill:#455a64"></path><path d="M347.17,85.1s0,.06,0,.17a1.64,1.64,0,0,1-.16.45,2.38,2.38,0,0,1-1.34,1.07,4.6,4.6,0,0,1-2.57,0c-.46-.13-.95-.25-1.45-.43a2.41,2.41,0,0,1-1.32-1,.91.91,0,0,1-.07-.14l.21,0A10.11,10.11,0,0,1,338,87a4.52,4.52,0,0,1-2.47.48,3.23,3.23,0,0,1-1.6-.56,1.64,1.64,0,0,1-.35-.3c-.07-.08-.11-.12-.1-.13s.17.15.5.35a3.57,3.57,0,0,0,1.56.46,4.54,4.54,0,0,0,2.35-.52A10.48,10.48,0,0,0,340.28,85l.13-.12.08.17.06.11a2.23,2.23,0,0,0,1.19.89c.47.18,1,.31,1.41.44a4.51,4.51,0,0,0,2.45.1,2.32,2.32,0,0,0,1.31-1A4.15,4.15,0,0,0,347.17,85.1Z" style="fill:#455a64"></path><path d="M321.9,118a4,4,0,0,0-1.19-1.52c-.21-.22-1.67.71-2.78,1.25-1.51.74-2.18,1.14-1,2.44h0c.69.69,1.23,1.4,2.2,1.33l.45-.06a3,3,0,0,0,1.9-1.11A2.74,2.74,0,0,0,321.9,118Z" style="fill:#ff9a6c"></path><path d="M318.08,121.43a15.36,15.36,0,0,0,1.79-.3c.94-.29,2.27-1.69,1.6-3.18a5.79,5.79,0,0,0-.65-1c-.11-.14,0-.1-.22-.12a1.29,1.29,0,0,0-.45.11l-1.81.89a5.28,5.28,0,0,1-1.78.68c0-.09.54-.51,1.53-1.13.51-.31,1.06-.66,1.79-1a1.75,1.75,0,0,1,.68-.2,1.17,1.17,0,0,1,.46.07.93.93,0,0,1,.37.32,6.27,6.27,0,0,1,.74,1.16,2.76,2.76,0,0,1-.31,2.71,3.18,3.18,0,0,1-1.81,1.24C318.77,121.88,318.05,121.5,318.08,121.43Z" style="fill:#263238"></path><path d="M291.35,187.1c-1-11.71,6.54-36.6,6.54-36.6l16.31-7.88c2,2.6,6.91,18.08,11.82,17.66,6.1-.53,12.49-17.77,16.93-23,0,0,20.51-1.28,21.46,3.19,1.33,6.28,5.45,62.49,5.45,62.49l.68,13.29,13.14,42.1c-66.73,23.33-90.26,4.7-90.26,4.7s6.71-42.31,5.81-45.24C298,213.77,291.85,193,291.35,187.1Z" style="fill:#FFE083"></path><path d="M351.47,188.81a2.69,2.69,0,0,0-1.79-1.4,2,2,0,0,0-2,.87,2.2,2.2,0,0,0-1.1-2.55,2.41,2.41,0,0,0-2.77.55,2.63,2.63,0,0,0-.35,2.84,2.17,2.17,0,0,0-2.79,2.87l1.86.22,6.8-.34a3.05,3.05,0,0,0,2-.58A2.11,2.11,0,0,0,351.47,188.81Z" style="fill:#fff"></path><path d="M283.41,194.77l23.62-1L298.93,150s-13.24,6.47-14,19.19C283.85,186.58,283.41,194.77,283.41,194.77Z" style="fill:#FFE083"></path><path d="M383.68,258.37s-.07,0-.21.1l-.66.25-2.55.9L376.21,261l-2.53.87c-.89.31-1.84.63-2.86.9a179.78,179.78,0,0,1-32.11,6.74c-1.59.16-3.17.35-4.73.47l-4.61.2-2.25.09c-.74,0-1.48,0-2.21,0l-4.27-.09c-1.39-.07-2.74-.23-4.05-.33l-1.95-.17c-.63-.07-1.25-.19-1.86-.28l-3.54-.55-3.23-.73a48.89,48.89,0,0,1-9.42-3.21,25.25,25.25,0,0,1-2.39-1.27c-.26-.17-.47-.29-.59-.39s-.2-.14-.19-.15.28.16.83.45,1.36.7,2.42,1.18a53.17,53.17,0,0,0,9.43,3l3.21.68,3.53.52c.61.09,1.22.2,1.86.26l1.93.16c1.31.1,2.65.24,4,.31l4.26.08c.72,0,1.45,0,2.19,0l2.24-.09,4.6-.2c1.55-.13,3.12-.32,4.71-.47a192.28,192.28,0,0,0,32-6.58c1-.26,2-.57,2.87-.87l2.54-.82,4.07-1.31,2.58-.81.68-.2Z" style="fill:#263238"></path><path d="M353.07,261.68a2.65,2.65,0,0,0-1.79-1.41,1.94,1.94,0,0,0-2,.88,2.21,2.21,0,0,0-1.11-2.56,2.41,2.41,0,0,0-2.77.56A2.61,2.61,0,0,0,345,262a2.17,2.17,0,0,0-2.79,2.87l1.87.23,6.8-.35a2.93,2.93,0,0,0,2-.58A2.1,2.1,0,0,0,353.07,261.68Z" style="fill:#fff"></path><path d="M369.36,224.28a2.66,2.66,0,0,0-1.79-1.4,1.92,1.92,0,0,0-2,.87,2.22,2.22,0,0,0-1.1-2.56,2.4,2.4,0,0,0-2.77.56,2.59,2.59,0,0,0-.36,2.83,2.18,2.18,0,0,0-2.79,2.87l1.87.23,6.8-.35a3,3,0,0,0,2-.58A2.11,2.11,0,0,0,369.36,224.28Z" style="fill:#fff"></path><path d="M313.21,210.46a2.69,2.69,0,0,0-1.79-1.4,2,2,0,0,0-2,.87,2.2,2.2,0,0,0-1.1-2.55,2.41,2.41,0,0,0-2.77.55,2.63,2.63,0,0,0-.35,2.84,2.17,2.17,0,0,0-2.79,2.87l1.86.22,6.8-.34a3.05,3.05,0,0,0,2-.58A2.11,2.11,0,0,0,313.21,210.46Z" style="fill:#fff"></path><path d="M297,171.38a3.42,3.42,0,0,1-.26.71c-.22.5-.5,1.17-.86,2s-.65,2-1,3.29a39.67,39.67,0,0,0-.79,4.47c-.88,6.67-.46,16.13,2,26.12a46.09,46.09,0,0,0,3.38,9.74l0,.06v.07c-.34,7.81-.9,14.54-1.41,19.3-.26,2.39-.5,4.28-.69,5.58-.09.61-.17,1.1-.23,1.48a1.54,1.54,0,0,1-.11.51,3.37,3.37,0,0,1,0-.52c0-.38.08-.88.14-1.49.13-1.36.32-3.24.54-5.59.43-4.77.93-11.5,1.23-19.29l0,.13a45.91,45.91,0,0,1-3.45-9.85c-2.46-10.06-2.83-19.58-1.85-26.3a38.45,38.45,0,0,1,.88-4.49c.35-1.31.78-2.39,1.06-3.29l1-2A4.44,4.44,0,0,1,297,171.38Z" style="fill:#263238"></path><path d="M309.93,144.68l5.08-5.6,10.93,18.63,13.54-21.56,2.79-3.77,6.26,4.81L344,159.47l-14.81,10.3s-13.42-2.05-13.42-2.43S309.93,144.68,309.93,144.68Z" style="fill:#FFE083"></path><path d="M348.53,137.19a9.14,9.14,0,0,1-.69,1.38c-.48.88-1.18,2.14-2.08,3.67-1.8,3.07-4.39,7.26-7.46,11.74-1,1.41-1.91,2.76-2.82,4l-.16.22-.21-.18a21.45,21.45,0,0,1-4.59-5.5h.34l-3.24,4.51a14,14,0,0,1-1.27,1.63,11.38,11.38,0,0,1,1.08-1.76l3.09-4.61.18-.27.17.28a21.86,21.86,0,0,0,4.57,5.33l-.37,0,2.8-4c3.06-4.48,5.7-8.62,7.57-11.64l2.23-3.58A8.39,8.39,0,0,1,348.53,137.19Z" style="fill:#263238"></path><path d="M309.36,145.15a4.91,4.91,0,0,1,.64,1l1.55,2.88c1.3,2.45,3.05,5.84,5,9.6l.73,1.44-.44,0,4.74-6.31.16-.21.16.2,2.65,3.28a8.47,8.47,0,0,1,.92,1.27,7.34,7.34,0,0,1-1.09-1.12L321.55,154h.32l-4.65,6.38-.25.34-.19-.38-.73-1.43c-1.91-3.77-3.61-7.18-4.83-9.67-.55-1.17-1-2.16-1.4-3A5.41,5.41,0,0,1,309.36,145.15Z" style="fill:#263238"></path><path d="M352.59,137.27a28.08,28.08,0,0,1,21.07,7.55c5.66,5.37,21.06,32.06,21.06,32.06l-27.8,8.41-7.7-12.4Z" style="fill:#FFE083"></path><path d="M394.72,176.88a11.63,11.63,0,0,1-1.67.63L388.44,179c-3.9,1.26-9.3,3-15.27,4.84l-5.38,1.66-.19.06-.1-.17c-2.5-4.15-4.68-7.77-6.28-10.44-.74-1.25-1.34-2.28-1.8-3.07a6.13,6.13,0,0,1-.59-1.14,9.7,9.7,0,0,1,.74,1l1.92,3,6.44,10.35-.29-.11,5.38-1.68c6-1.86,11.39-3.52,15.31-4.69l4.66-1.37A12.58,12.58,0,0,1,394.72,176.88Z" style="fill:#263238"></path><path d="M357.94,138c.07.07-.79,1-1.86,2.61a18.78,18.78,0,0,0-1.58,3.06,22.07,22.07,0,0,0-1.19,4,22.31,22.31,0,0,0-.31,4.2,19.83,19.83,0,0,0,.42,3.43c.41,1.92.92,3.05.83,3.09s-.18-.26-.41-.77a5.88,5.88,0,0,1-.38-.94,12,12,0,0,1-.4-1.3,17.8,17.8,0,0,1-.54-3.49,20.32,20.32,0,0,1,.28-4.31,20.73,20.73,0,0,1,1.25-4.14,18.37,18.37,0,0,1,1.73-3.08,11.84,11.84,0,0,1,.82-1.07,7.88,7.88,0,0,1,.69-.76C357.69,138.13,357.92,137.92,357.94,138Z" style="fill:#263238"></path><path d="M321.09,181a2.66,2.66,0,0,0-1.79-1.4,2,2,0,0,0-2,.87,2.2,2.2,0,0,0-1.1-2.55,2.39,2.39,0,0,0-2.77.55,2.63,2.63,0,0,0-.36,2.84,2.17,2.17,0,0,0-2.79,2.87l1.87.22,6.8-.34a3.07,3.07,0,0,0,2-.58A2.13,2.13,0,0,0,321.09,181Z" style="fill:#fff"></path><path d="M350.57,166.07a2.66,2.66,0,0,0-1.79-1.4,1.94,1.94,0,0,0-2,.87,2.2,2.2,0,0,0-1.1-2.55,2.4,2.4,0,0,0-2.77.55,2.63,2.63,0,0,0-.36,2.84,2.18,2.18,0,0,0-2.79,2.87l1.87.22,6.8-.34a3.07,3.07,0,0,0,2-.58A2.13,2.13,0,0,0,350.57,166.07Z" style="fill:#fff"></path><path d="M382.89,168.1a2.66,2.66,0,0,0-1.79-1.4,1.93,1.93,0,0,0-2,.87A2.22,2.22,0,0,0,378,165a2.39,2.39,0,0,0-2.77.55,2.63,2.63,0,0,0-.35,2.84,2.17,2.17,0,0,0-2.79,2.87l1.86.22,6.8-.34a3.05,3.05,0,0,0,2-.58A2.11,2.11,0,0,0,382.89,168.1Z" style="fill:#fff"></path><path d="M303.28,162.17a2.67,2.67,0,0,0-1.79-1.4,1.94,1.94,0,0,0-2,.88,2.21,2.21,0,0,0-1.11-2.56,2.4,2.4,0,0,0-2.77.56,2.61,2.61,0,0,0-.35,2.83,2.17,2.17,0,0,0-2.79,2.87l1.87.23,6.8-.35a3,3,0,0,0,2-.58A2.11,2.11,0,0,0,303.28,162.17Z" style="fill:#fff"></path><path d="M329.87,194l42.92-7.41-1.57-2.15,21.51-6.84s6.3,9.93,6.88,19c.57,8.69-9,12.54-11.71,12.43s-53.6-3-53.6-3l-4.43-12Z" style="fill:#ffbf9d"></path><polygon points="286.5 221.61 354.87 201.45 370.12 250.01 302.21 270.5 286.5 221.61" style="fill:#455a64"></polygon><polygon points="321.18 264.95 302.21 270.5 286.5 221.61 305.24 216.27 321.18 264.95" style="opacity:0.30000000000000004"></polygon><polygon points="318.51 221.69 329 255.27 331.8 254.4 321.16 220.94 318.51 221.69" style="fill:#fff;opacity:0.4"></polygon><polygon points="317.77 235.57 320.53 245.07 323.34 244.2 320.42 234.81 317.77 235.57" style="fill:#fff"></polygon><polygon points="324.02 220.07 334.46 253.28 360.9 244.56 349.78 211.8 324.02 220.07" style="fill:#fff;opacity:0.4"></polygon><path d="M385.13,193.62a28.29,28.29,0,0,0-6.06-4.52,27.85,27.85,0,0,0-7.23-2.22,6.6,6.6,0,0,1,2.26.09,17.28,17.28,0,0,1,9.62,4.88A6.29,6.29,0,0,1,385.13,193.62Z" style="fill:#ff9a6c"></path><path d="M330.84,193.62S313.89,202.29,312,204.4s-3.56,7.8-3.5,10.2c0,1.75,2.69,6.91,4.11,9.55a1.26,1.26,0,0,0,2.17.08,5.25,5.25,0,0,0,.79-3.22,16.2,16.2,0,0,0-2-5.89l2.05-4.1s-.08,4.92,2.89,6.33,9.21,1.29,11.86-.4-3.62-5.52-3.62-5.52l3.06-2.83s10.35,1.73,11.69-3.21C342,203.67,330.84,193.62,330.84,193.62Z" style="fill:#ffbf9d"></path><path d="M328.67,217.7a12.64,12.64,0,0,1-2.69-.08c-.83-.07-1.81-.15-2.9-.33a4.11,4.11,0,0,1-.87-.22,2.23,2.23,0,0,1-.76-.62,7,7,0,0,1-.95-1.66,14.78,14.78,0,0,1-1-3.47,4.47,4.47,0,0,1,0-1.63,6.37,6.37,0,0,1,.57-1.28,9.33,9.33,0,0,1,1.5-2.24,24.6,24.6,0,0,1-1.17,2.41,6.23,6.23,0,0,0-.48,1.21,4.32,4.32,0,0,0,.08,1.45,16.06,16.06,0,0,0,1,3.35,6.83,6.83,0,0,0,.86,1.53,1.7,1.7,0,0,0,.57.49,2.82,2.82,0,0,0,.76.2c1.06.2,2,.33,2.85.45A14.6,14.6,0,0,1,328.67,217.7Z" style="fill:#ff9a6c"></path><path d="M343.22,483.76a47.9,47.9,0,0,0-3-10.4,18.12,18.12,0,0,0-7.33-8.61c-5.39-3-12.51-1.85-17.36,2s-7.55,11-8.28,17.17Z" style="fill:#455a64"></path><path d="M367.64,483.76a47.9,47.9,0,0,0-3-10.4,18.12,18.12,0,0,0-7.33-8.61c-5.39-3-12.51-1.85-17.36,2s-7.55,11-8.28,17.17Z" style="fill:#455a64"></path><path d="M367.64,483.76a6.26,6.26,0,0,1-.66,0l-2,0-7.47.1-25.87.22h-.28l0-.28a32.07,32.07,0,0,1,3.68-11.64,18,18,0,0,1,6.69-7.06,17.29,17.29,0,0,1,8.75-2.36,14.09,14.09,0,0,1,7.85,2.35,17.29,17.29,0,0,1,4.88,5.24,31.49,31.49,0,0,1,3.67,9.64c.27,1.19.45,2.12.57,2.76a8.67,8.67,0,0,1,.15,1s-.11-.33-.26-.94-.38-1.58-.65-2.73a33.16,33.16,0,0,0-3.79-9.5,17,17,0,0,0-4.81-5.07,13.63,13.63,0,0,0-7.61-2.23,16.89,16.89,0,0,0-8.5,2.33,17.49,17.49,0,0,0-6.49,6.87,31.72,31.72,0,0,0-3.63,11.44l-.25-.28,25.67,0,7.55.05,2,0Z" style="fill:#263238"></path></g><g id="freepik--Cereals--inject-325"><path d="M320.25,265.19a11.83,11.83,0,0,1-3.38-1.24c-1.08-.73-1.42-2-2.22-3-2.43-3-6.28-1.53-8.61.73A8.86,8.86,0,0,0,304.3,264c-.11.21-1.07,2.66-.84,2.71a12.12,12.12,0,0,0-11.87,4L324,270s-.52-2.1-.6-2.3A4.28,4.28,0,0,0,320.25,265.19Z" style="fill:#f9b76e"></path><path d="M306.48,292.49h-3.4A22.45,22.45,0,0,1,280.63,270h48.3A22.45,22.45,0,0,1,306.48,292.49Z" style="fill:#e0e0e0"></path><path d="M306.48,292.49l.32,0,.92-.07a22.32,22.32,0,0,0,14.69-6.79,22.07,22.07,0,0,0,4.78-7.5,16.38,16.38,0,0,0,.75-2.34c.1-.4.21-.81.31-1.22s.13-.83.19-1.26a18.33,18.33,0,0,0,.23-2.59v-.62l.23.22h-2.06l-23.79,0H280.63c.48-.47.14-.12.24-.22v.62l0,.68a21.48,21.48,0,0,0,2.88,9.76,22.65,22.65,0,0,0,5.87,6.68,22.39,22.39,0,0,0,6.52,3.46,22.64,22.64,0,0,0,5.48,1.06c1.53.12,2.74.09,3.55.12l.93,0,.31,0-.31,0-.93,0c-.81,0-2,.07-3.56,0a21.88,21.88,0,0,1-5.56-1,22.62,22.62,0,0,1-12.67-10.2,21.83,21.83,0,0,1-3-9.94l0-.69,0-.35v-.29c.11-.11-.24.23.24-.26h22.45l23.79,0h2.06c0-.06.45.45.24.25v.63a19.19,19.19,0,0,1-.24,2.65l-.21,1.28c-.1.42-.21.83-.32,1.25a18.23,18.23,0,0,1-.77,2.37,22.46,22.46,0,0,1-16.33,13.83,19.23,19.23,0,0,1-3.55.41l-.92,0A1,1,0,0,1,306.48,292.49Z" style="fill:#263238"></path><g style="opacity:0.30000000000000004"><path d="M310.29,260.72a1,1,0,1,1-.14,0" style="fill:#fff"></path></g><g style="opacity:0.30000000000000004"><path d="M320,266.66a1.09,1.09,0,0,1,.64,1.66,1,1,0,1,1-.78-1.68" style="fill:#fff"></path></g><g style="opacity:0.30000000000000004"><path d="M313.43,266.52a1.07,1.07,0,1,1-.15,0" style="fill:#fff"></path></g><path d="M303.39,260.24h-.15a1,1,0,1,0,.15,0Z" style="fill:#f9b76e"></path><path d="M306,257.14h-.09a.62.62,0,1,0,.09,0Z" style="fill:#f9b76e"></path><g style="opacity:0.30000000000000004"><path d="M305,267.1a1.06,1.06,0,1,1-.14,0" style="fill:#fff"></path></g><g style="opacity:0.30000000000000004"><path d="M300,267.54a1.06,1.06,0,1,1-.14,0" style="fill:#fff"></path></g><path d="M314.78,262.48a11.14,11.14,0,0,0-1.24.16,2.57,2.57,0,0,0-1.82,2.08l0,.28-.28-.07a3,3,0,0,0-.62-.09,3.07,3.07,0,0,0-1.75.48,3,3,0,0,0-1,1.12,9.77,9.77,0,0,0-.47,1.39,2,2,0,0,1,.14-1.55,3,3,0,0,1,1.07-1.35,3.31,3.31,0,0,1,2-.61,3.47,3.47,0,0,1,.73.11l-.32.21a2.8,2.8,0,0,1,2.25-2.33C314.32,262.17,314.8,262.44,314.78,262.48Z" style="fill:#263238"></path></g><g id="freepik--Table--inject-325"><rect x="76.18" y="292.42" width="289.15" height="12.03" style="fill:#ae7461"></rect><rect x="80.52" y="304.45" width="10.8" height="179.44" style="fill:#ae7461"></rect><rect x="340.15" y="304.45" width="10.8" height="179.44" style="fill:#ae7461"></rect><rect x="89.16" y="302.08" width="255.27" height="34.7" style="fill:#ae7461"></rect><path d="M365.33,304.45c0,.15-64.73.26-144.56.26s-144.59-.11-144.59-.26,64.72-.26,144.59-.26S365.33,304.31,365.33,304.45Z" style="fill:#263238"></path><path d="M91.32,304.86c.14,0,.26,12.19.26,27.23s-.12,27.24-.26,27.24-.26-12.19-.26-27.24S91.17,304.86,91.32,304.86Z" style="fill:#263238"></path><path d="M340,304.51c.14,0,.26,7.85.26,17.52s-.12,17.52-.26,17.52-.26-7.84-.26-17.52S339.89,304.51,340,304.51Z" style="fill:#263238"></path></g></svg>
